<svg width="473" height="420" viewBox="0 0 473 420" fill="none" xmlns="http://www.w3.org/2000/svg">
<path opacity="0.49" fill-rule="evenodd" clip-rule="evenodd" d="M165.958 189L93.4603 169.165L275.272 89L448.46 131.399L165.958 189Z" fill="#FF0000"/>
<path fill-rule="evenodd" clip-rule="evenodd" d="M148.315 214.114C153.919 212.083 158.611 208.113 161.541 202.923C166.456 194.212 166.642 189.303 163.575 183.593C160.853 179.306 157.411 175.52 153.402 172.403L98.4669 215.13L102.538 231.415L148.315 214.114ZM93.3815 239.547C93.3815 239.547 90.7234 242.455 90.3299 253.789C89.9363 265.123 92.3636 267.013 92.3636 267.013L80.1493 275.156C80.1493 275.156 73.9084 264.755 78.1136 255.827C82.3188 246.899 93.3815 239.547 93.3815 239.547ZM1.82261 385.021C1.82261 385.021 -0.792808 402.664 1.82261 406.384C4.43802 410.105 23.8064 423.393 46.5852 418.599C60.7383 415.617 62.2369 414.186 69.9824 403.341C73.6156 398.255 71.4849 388.742 64.8969 384.011C58.309 379.28 1.82261 385.021 1.82261 385.021Z" fill="#4387DC"/>
<path fill-rule="evenodd" clip-rule="evenodd" d="M165.611 188.681C165.611 188.681 168.013 192.838 156.454 198.854C144.895 204.87 103.555 224.286 103.555 224.286L101.521 216.144L152.385 179.52L156.456 173.417C159.18 175.327 161.416 177.851 162.986 180.784C164.232 183.278 165.115 185.937 165.611 188.681ZM64.9013 387.055C64.9013 387.055 70.0952 401.559 58.796 409.436C50.5078 415.216 35.4725 418.446 26.2439 410.454C15.633 401.264 12.0171 393.274 5.88673 392.142C-0.243696 391.01 0.801318 389.09 0.801318 389.09V382.985L63.8737 386.039" fill="#2F5F95"/>
<path fill-rule="evenodd" clip-rule="evenodd" d="M109.658 151.039C109.658 151.039 160.648 165.501 157.472 179.524C154.296 193.547 102.969 208.918 103.555 219.199C104.14 229.48 104.078 226.677 108.642 227.342C113.206 228.007 147.299 214.118 147.299 214.118C147.299 214.118 151.316 213.342 147.299 217.169C143.282 220.996 90.3301 241.584 90.3301 241.584C90.3301 241.584 78.9339 260.85 83.209 276.172C87.484 291.494 88.2595 294.523 83.209 304.657C78.1584 314.791 74.7462 310.099 73.0342 317.883C71.3223 325.667 73.6062 330.115 69.9826 336.195C66.359 342.275 60.5291 341.945 58.792 347.383C57.0548 352.822 63.2201 352.641 60.8277 359.598C58.4352 366.554 55.4417 365.802 54.7244 369.77C54.0071 373.739 55.7403 373.842 55.7403 373.842C55.7403 373.842 69.0733 380.711 64.8972 394.187C60.721 407.664 47.9639 414.545 37.4305 412.499C26.8971 410.454 17.5754 398.129 13.0135 394.187C8.45154 390.246 0.799167 384.015 0.799167 384.015C0.799167 384.015 6.09591 341.691 9.95408 321.96C13.8123 302.229 19.52 285.094 18.097 281.267C16.6739 277.44 13.1899 277.839 14.0255 269.053C14.8611 260.266 19.0082 255.828 18.097 249.725C17.1857 243.622 9.65552 240.303 3.85469 226.326C-2.20787 211.723 -2.21562 200.071 15.0453 184.617C45.9243 156.966 109.658 151.039 109.658 151.039Z" fill="#2F2F2F"/>
<path fill-rule="evenodd" clip-rule="evenodd" d="M50.6559 313.809C44.8395 361.246 38.7091 381.802 36.4136 379.933C41.024 383.685 55.1015 389.24 56.7591 382.985C57.3332 380.647 58.1158 378.365 59.0973 376.166C58.056 375.285 56.9322 374.506 55.7413 373.84C55.7413 373.84 54.008 373.743 54.7254 369.768C55.4427 365.794 58.4362 366.546 60.8286 359.596C63.2211 352.645 57.0577 352.825 58.7929 347.381C60.5281 341.937 66.3542 342.271 69.9836 336.193C73.613 330.115 71.3252 325.663 73.0352 317.881C74.7452 310.099 78.1594 314.779 83.2099 304.655C88.2604 294.53 87.4849 291.492 83.2099 276.17C79.7337 263.709 86.6183 248.639 89.3132 243.449V240.555C89.3132 240.555 62.1567 244.787 58.7929 250.727C54.2504 258.762 53.4632 290.883 50.6559 313.809ZM100.504 225.304C100.504 225.304 86.1724 231.85 57.777 232.425C29.3816 233.001 19.4667 232.712 11.9985 228.354C7.76285 225.978 3.97555 222.879 0.807908 219.197C0.807908 219.197 -4.25812 202.849 10.9807 187.661C26.2195 172.472 50.9874 159.89 84.2258 154.091C117.464 148.292 115.262 152.361 135.092 159.176C154.921 165.991 159.357 177.982 156.455 182.575C152.738 188.465 131.765 199.637 117.602 206.921C107.431 212.159 100.504 225.304 100.504 225.304Z" fill="#454545"/>
<path fill-rule="evenodd" clip-rule="evenodd" d="M144.249 214.114C144.249 214.114 114.973 231.043 106.607 231.408C99.2787 231.726 94.0052 230.95 93.3828 229.372C92.7605 227.794 93.757 223.315 97.4543 219.199C101.152 215.083 123.729 201.973 134.074 197.836C144.419 193.698 101.867 214.472 103.556 222.251C104.385 226.076 105.783 226.71 115.77 225.304C125.78 223.899 144.249 214.114 144.249 214.114Z" fill="#212121"/>
<path fill-rule="evenodd" clip-rule="evenodd" d="M101.522 187.663C101.522 187.663 47.3715 191.814 40.483 186.645C31.8051 180.136 34.3778 173.421 34.3778 173.421C34.3778 173.421 12.7798 190.513 18.1018 194.784C42.0729 214.022 101.522 187.663 101.522 187.663ZM127.97 179.524C127.97 179.524 150.935 176.484 144.256 170.369C137.577 164.254 107.759 154.351 101.448 154.037C93.3284 153.635 79.0997 158.127 79.1519 158.16C79.1519 158.16 95.3021 154.554 101.533 156.127C107.765 157.699 138.101 169.027 139.173 171.387C140.245 173.746 127.97 179.524 127.97 179.524Z" fill="#6F6E6E"/>
<path d="M367.065 107.344C365.522 107.344 364.271 105.846 364.271 103.997V73.0145C364.271 71.1655 365.522 69.6672 367.065 69.6672C368.608 69.6672 369.858 71.1655 369.858 73.0145V103.997C369.858 105.846 368.608 107.344 367.065 107.344Z" fill="black"/>
<path d="M375.382 107.344C373.839 107.344 372.589 105.846 372.589 103.997V73.0145C372.589 71.1655 373.839 69.6672 375.382 69.6672C376.926 69.6672 378.176 71.1655 378.176 73.0145V103.997C378.176 105.846 376.926 107.344 375.382 107.344Z" fill="black"/>
<path d="M383.7 107.344C382.157 107.344 380.906 105.846 380.906 103.997V73.0145C380.906 71.1655 382.157 69.6672 383.7 69.6672C385.243 69.6672 386.493 71.1655 386.493 73.0145V103.997C386.493 105.846 385.243 107.344 383.7 107.344Z" fill="black"/>
<path d="M392.008 107.344C390.465 107.344 389.215 105.846 389.215 103.997V73.0145C389.215 71.1655 390.465 69.6672 392.008 69.6672C393.551 69.6672 394.802 71.1655 394.802 73.0145V103.997C394.802 105.846 393.551 107.344 392.008 107.344Z" fill="black"/>
<path d="M400.326 107.344C398.783 107.344 397.532 105.846 397.532 103.997V73.0145C397.532 71.1655 398.783 69.6672 400.326 69.6672C401.869 69.6672 403.119 71.1655 403.119 73.0145V103.997C403.119 105.846 401.869 107.344 400.326 107.344Z" fill="black"/>
<path d="M408.643 107.344C407.1 107.344 405.85 105.846 405.85 103.997V73.0145C405.85 71.1655 407.1 69.6672 408.643 69.6672C410.186 69.6672 411.437 71.1655 411.437 73.0145V103.997C411.437 105.846 410.186 107.344 408.643 107.344Z" fill="black"/>
<path d="M416.952 107.344C415.409 107.344 414.158 105.846 414.158 103.997V73.0145C414.158 71.1655 415.409 69.6672 416.952 69.6672C418.495 69.6672 419.745 71.1655 419.745 73.0145V103.997C419.745 105.846 418.495 107.344 416.952 107.344Z" fill="black"/>
<path d="M299.373 205.381C297.83 205.381 296.579 203.883 296.579 202.034V191.94C296.579 190.091 297.83 188.593 299.373 188.593C300.916 188.593 302.166 190.091 302.166 191.94V202.034C302.166 203.883 300.916 205.381 299.373 205.381Z" fill="black"/>
<path d="M307.681 205.381C306.138 205.381 304.888 203.883 304.888 202.034V191.94C304.888 190.091 306.138 188.593 307.681 188.593C309.224 188.593 310.475 190.091 310.475 191.94V202.034C310.475 203.883 309.224 205.381 307.681 205.381Z" fill="black"/>
<path d="M315.999 205.381C314.456 205.381 313.205 203.883 313.205 202.034V191.94C313.205 190.091 314.456 188.593 315.999 188.593C317.542 188.593 318.792 190.091 318.792 191.94V202.034C318.792 203.883 317.542 205.381 315.999 205.381Z" fill="black"/>
<path d="M324.316 205.381C322.773 205.381 321.523 203.883 321.523 202.034V191.94C321.523 190.091 322.773 188.593 324.316 188.593C325.859 188.593 327.11 190.091 327.11 191.94V202.034C327.11 203.883 325.859 205.381 324.316 205.381Z" fill="black"/>
<path d="M332.634 205.381C331.09 205.381 329.84 203.883 329.84 202.034V191.94C329.84 190.091 331.09 188.593 332.634 188.593C334.177 188.593 335.427 190.091 335.427 191.94V202.034C335.427 203.883 334.177 205.381 332.634 205.381Z" fill="black"/>
<path d="M340.942 205.381C339.399 205.381 338.149 203.883 338.149 202.034V191.94C338.149 190.091 339.399 188.593 340.942 188.593C342.485 188.593 343.736 190.091 343.736 191.94V202.034C343.736 203.883 342.485 205.381 340.942 205.381Z" fill="black"/>
<path d="M349.26 205.381C347.716 205.381 346.466 203.883 346.466 202.034V191.94C346.466 190.091 347.716 188.593 349.26 188.593C350.803 188.593 352.053 190.091 352.053 191.94V202.034C352.053 203.883 350.803 205.381 349.26 205.381Z" fill="black"/>
<path d="M421.439 119.648H296.482C294.939 119.648 293.689 118.15 293.689 116.301C293.689 114.452 294.939 112.954 296.482 112.954H421.43C422.973 112.954 424.223 114.452 424.223 116.301C424.223 118.15 422.973 119.648 421.43 119.648H421.439Z" fill="black"/>
<path d="M421.439 147.677H296.482C294.939 147.677 293.689 146.179 293.689 144.329C293.689 142.48 294.939 140.982 296.482 140.982H421.43C422.973 140.982 424.223 142.48 424.223 144.329C424.223 146.179 422.973 147.677 421.43 147.677H421.439Z" fill="black"/>
<path d="M421.439 183.016H296.482C294.939 183.016 293.689 181.517 293.689 179.668C293.689 177.819 294.939 176.321 296.482 176.321H421.43C422.973 176.321 424.223 177.819 424.223 179.668C424.223 181.517 422.973 183.016 421.43 183.016H421.439Z" fill="black"/>
<path d="M340.942 87.6455H296.482C294.939 87.6455 293.689 86.1472 293.689 84.2982C293.689 82.4492 294.939 80.9509 296.482 80.9509H340.942C342.485 80.9509 343.736 82.4492 343.736 84.2982C343.736 86.1472 342.485 87.6455 340.942 87.6455Z" fill="black"/>
<path d="M421.439 201.705H372.518C370.975 201.705 369.725 200.207 369.725 198.358C369.725 196.509 370.975 195.01 372.518 195.01H421.439C422.982 195.01 424.232 196.509 424.232 198.358C424.232 200.207 422.982 201.705 421.439 201.705Z" fill="black"/>
<path d="M329.335 102.138H296.481C294.938 102.138 293.688 100.64 293.688 98.7909C293.688 96.9419 294.938 95.4436 296.481 95.4436H329.335C330.878 95.4436 332.129 96.9419 332.129 98.7909C332.129 100.64 330.878 102.138 329.335 102.138Z" fill="black"/>
<path d="M428.674 227.672H289.247C283.9 227.672 279.546 222.455 279.546 216.049L279.538 55.9623C279.538 49.556 283.892 44.3391 289.238 44.3391H428.674C434.021 44.3391 438.375 49.5561 438.375 55.9623V216.049C438.375 222.456 434.021 227.672 428.674 227.672ZM289.247 51.0212C286.976 51.0212 285.123 53.2313 285.123 55.9622V216.049C285.123 218.77 286.967 220.98 289.247 220.98H428.683C430.954 220.98 432.798 218.77 432.798 216.049V55.9622C432.798 53.2416 430.953 51.0212 428.683 51.0212H289.247Z" fill="black"/>
<path d="M358.96 183.016C357.417 183.016 356.167 181.517 356.167 179.668V144.329C356.167 142.48 357.417 140.982 358.96 140.982C360.503 140.982 361.754 142.48 361.754 144.329V179.668C361.754 181.517 360.503 183.016 358.96 183.016Z" fill="black"/>
</svg>
